<svg width="24" height="24" viewBox="0 0 24 24" fill="none" xmlns="http://www.w3.org/2000/svg">
<path d="M19.4 9.37501L18.712 8.68701L19.192 8.18101C19.3207 8.05301 19.385 7.90868 19.385 7.74801C19.385 7.58801 19.3207 7.44368 19.192 7.31501L16.684 4.80801C16.556 4.68001 16.412 4.61601 16.252 4.61601C16.092 4.61601 15.9477 4.68001 15.819 4.80801L15.313 5.28801L14.6 4.57501L15.158 3.99201C15.4513 3.69868 15.811 3.55634 16.237 3.56501C16.663 3.57368 17.0227 3.72434 17.316 4.01701L19.983 6.68501C20.2763 6.97834 20.423 7.33367 20.423 7.75101C20.423 8.16834 20.2763 8.52368 19.983 8.81701L19.4 9.37501ZM8.842 19.958C8.54866 20.2513 8.19333 20.398 7.776 20.398C7.35866 20.398 7.00333 20.2513 6.71 19.958L4.12 17.368C3.81333 17.0613 3.66 16.68 3.66 16.224C3.66 15.768 3.81333 15.387 4.12 15.081L4.6 14.6L5.314 15.314L4.827 15.794C4.699 15.9227 4.635 16.067 4.635 16.227C4.635 16.387 4.699 16.5313 4.827 16.66L7.341 19.173C7.469 19.3017 7.613 19.366 7.773 19.366C7.933 19.366 8.07733 19.3017 8.206 19.173L8.686 18.687L9.4 19.4L8.842 19.958ZM18.575 13.154L19.712 12.017C19.84 11.889 19.904 11.7417 19.904 11.575C19.904 11.4083 19.84 11.261 19.712 11.133L12.867 4.28901C12.739 4.16034 12.5917 4.09601 12.425 4.09601C12.2583 4.09601 12.111 4.16001 11.983 4.28801L10.846 5.42501C10.718 5.55301 10.654 5.69734 10.654 5.85801C10.654 6.01801 10.718 6.16234 10.846 6.29101L17.71 13.154C17.838 13.282 17.982 13.346 18.142 13.346C18.302 13.346 18.4463 13.282 18.575 13.154ZM12.017 19.712L13.154 18.569C13.282 18.441 13.346 18.297 13.346 18.137C13.346 17.977 13.282 17.8327 13.154 17.704L6.296 10.846C6.168 10.718 6.02366 10.654 5.863 10.654C5.703 10.654 5.559 10.718 5.431 10.846L4.288 11.983C4.16 12.111 4.096 12.2583 4.096 12.425C4.096 12.5917 4.16 12.739 4.288 12.867L11.133 19.711C11.261 19.8397 11.4083 19.904 11.575 19.904C11.7417 19.904 11.889 19.84 12.017 19.712ZM11.309 14.439L14.444 11.309L12.69 9.55601L9.561 12.691L11.309 14.439ZM12.711 20.419C12.405 20.7257 12.0263 20.879 11.575 20.879C11.1237 20.879 10.7447 20.7257 10.438 20.419L3.581 13.562C3.27433 13.2553 3.121 12.8763 3.121 12.425C3.121 11.9737 3.27433 11.595 3.581 11.289L4.717 10.133C5.02366 9.82634 5.405 9.67301 5.861 9.67301C6.317 9.67301 6.698 9.82634 7.004 10.133L8.848 11.977L11.983 8.84201L10.139 7.00401C9.83233 6.69734 9.679 6.31534 9.679 5.85801C9.679 5.40067 9.83233 5.01867 10.139 4.71201L11.294 3.55601C11.6007 3.24934 11.9817 3.09601 12.437 3.09601C12.8923 3.09601 13.2737 3.24934 13.581 3.55601L20.444 10.419C20.7507 10.7257 20.904 11.107 20.904 11.563C20.904 12.019 20.7507 12.4 20.444 12.706L19.289 13.862C18.9823 14.1687 18.6 14.322 18.142 14.322C17.684 14.322 17.302 14.1687 16.996 13.862L15.158 12.017L12.023 15.152L13.867 16.996C14.1737 17.3027 14.327 17.684 14.327 18.14C14.327 18.596 14.1737 18.977 13.867 19.283L12.711 20.419Z" fill="black"/>
</svg>
