<svg width="15" height="15" viewBox="0 0 15 15" fill="none" xmlns="http://www.w3.org/2000/svg">
<path fill-rule="evenodd" clip-rule="evenodd" d="M0 3.51562C0 3.32914 0.074079 3.1503 0.205941 3.01844C0.337802 2.88658 0.516645 2.8125 0.703125 2.8125H14.2969C14.4834 2.8125 14.6622 2.88658 14.7941 3.01844C14.9259 3.1503 15 3.32914 15 3.51562C15 3.70211 14.9259 3.88095 14.7941 4.01281C14.6622 4.14467 14.4834 4.21875 14.2969 4.21875H0.703125C0.516645 4.21875 0.337802 4.14467 0.205941 4.01281C0.074079 3.88095 0 3.70211 0 3.51562ZM0 7.5C0 7.31352 0.074079 7.13468 0.205941 7.00282C0.337802 6.87095 0.516645 6.79688 0.703125 6.79688H14.2969C14.4834 6.79688 14.6622 6.87095 14.7941 7.00282C14.9259 7.13468 15 7.31352 15 7.5C15 7.68648 14.9259 7.86532 14.7941 7.99718C14.6622 8.12905 14.4834 8.20312 14.2969 8.20312H0.703125C0.516645 8.20312 0.337802 8.12905 0.205941 7.99718C0.074079 7.86532 0 7.68648 0 7.5ZM0.703125 10.7812C0.516645 10.7812 0.337802 10.8553 0.205941 10.9872C0.074079 11.1191 0 11.2979 0 11.4844C0 11.6709 0.074079 11.8497 0.205941 11.9816C0.337802 12.1134 0.516645 12.1875 0.703125 12.1875H14.2969C14.4834 12.1875 14.6622 12.1134 14.7941 11.9816C14.9259 11.8497 15 11.6709 15 11.4844C15 11.2979 14.9259 11.1191 14.7941 10.9872C14.6622 10.8553 14.4834 10.7812 14.2969 10.7812H0.703125Z" fill="black"/>
</svg>
