<svg width="24" height="24" viewBox="0 0 24 24" fill="none" xmlns="http://www.w3.org/2000/svg">
<path d="M16.2803 15.2197L12.5303 11.4697C12.4608 11.3998 12.3782 11.3442 12.2872 11.3063C12.1962 11.2684 12.0986 11.2489 12 11.2489C11.9014 11.2489 11.8038 11.2684 11.7128 11.3063C11.6218 11.3442 11.5392 11.3998 11.4698 11.4697L1.5 21.4395L2.5605 22.5L12 13.0605L14.6895 15.75L10.5 19.9395L11.5605 21L13.2795 19.281L16.2803 16.2802C16.3501 16.2108 16.4056 16.1281 16.4434 16.0371C16.4813 15.9461 16.5008 15.8485 16.5008 15.75C16.5008 15.6514 16.4813 15.5539 16.4434 15.4629C16.4056 15.3719 16.3501 15.2892 16.2803 15.2197Z" fill="black"/>
<path d="M21.4395 6.74999L17.25 10.9395L12.7493 6.43799C12.6092 6.29824 12.4428 6.1876 12.2598 6.11243C12.0767 6.03726 11.8806 5.99904 11.6827 5.99999C11.287 6.00106 10.9077 6.15849 10.6275 6.43799L6 11.07L7.0605 12.1305L11.688 7.49924L16.7205 12.5302C16.79 12.6 16.8726 12.6554 16.9635 12.6932C17.0544 12.7309 17.1519 12.7504 17.2504 12.7504C17.3488 12.7504 17.4463 12.7309 17.5373 12.6932C17.6282 12.6554 17.7108 12.6 17.7803 12.5302L22.5 7.81049L21.4395 6.74999Z" fill="black"/>
<path d="M16.875 6.75C15.4275 6.75 14.25 5.5725 14.25 4.125C14.25 2.6775 15.4275 1.5 16.875 1.5C18.3225 1.5 19.5 2.6775 19.5 4.125C19.5 5.5725 18.3225 6.75 16.875 6.75ZM16.875 3C16.2548 3 15.75 3.50475 15.75 4.125C15.75 4.74525 16.2548 5.25 16.875 5.25C17.4952 5.25 18 4.74525 18 4.125C18 3.50475 17.4952 3 16.875 3Z" fill="black"/>
</svg>
