<svg width="28" height="28" viewBox="0 0 28 28" fill="none" xmlns="http://www.w3.org/2000/svg">
<path fill-rule="evenodd" clip-rule="evenodd" d="M14.6568 3.73334H13.3432L12.5907 6.74101L11.8358 6.97434C11.396 7.10988 10.9698 7.28643 10.563 7.50168L9.86417 7.87151L7.20417 6.27551L6.2755 7.20534L7.8715 9.86534L7.50167 10.563C7.28602 10.9698 7.10908 11.396 6.97317 11.8358L6.741 12.5907L3.73333 13.3432V14.6568L6.741 15.4093L6.97433 16.1642C7.10889 16.606 7.28467 17.0302 7.50167 17.437L7.8715 18.1358L6.2755 20.7958L7.20533 21.7245L9.86533 20.1285L10.563 20.4983C10.9698 20.7146 11.3941 20.8907 11.8358 21.0268L12.5907 21.259L13.3432 24.2667H14.6568L15.4093 21.259L16.1642 21.0257C16.604 20.8901 17.0302 20.7136 17.437 20.4983L18.1358 20.1285L20.7958 21.7245L21.7245 20.7947L20.1285 18.1347L20.4983 17.437C20.7146 17.0302 20.8907 16.606 21.0268 16.1642L21.259 15.4093L24.2667 14.6568V13.3432L21.259 12.5907L21.0257 11.8358C20.8901 11.396 20.7136 10.9698 20.4983 10.563L20.1285 9.86418L21.7245 7.20418L20.7947 6.27551L18.1347 7.87151L17.437 7.50168C17.0302 7.28603 16.6041 7.10909 16.1642 6.97318L15.4093 6.74101L14.6568 3.73334ZM18.0927 6.26501L20.2312 4.98168C20.4542 4.84793 20.7154 4.79251 20.9735 4.82422C21.2316 4.85592 21.4717 4.97294 21.6557 5.15668L22.8433 6.34434C23.0271 6.52833 23.1441 6.76842 23.1758 7.0265C23.2075 7.28458 23.1521 7.54586 23.0183 7.76884L21.735 9.90734C21.9917 10.3896 22.2017 10.8951 22.365 11.424L24.7835 12.0295C25.0358 12.0927 25.2597 12.2384 25.4197 12.4434C25.5797 12.6485 25.6667 12.9011 25.6667 13.1612V14.8388C25.6667 15.0989 25.5797 15.3516 25.4197 15.5566C25.2597 15.7616 25.0358 15.9073 24.7835 15.9705L22.365 16.576C22.2017 17.1049 21.9917 17.6105 21.735 18.0927L23.0183 20.2312C23.1521 20.4542 23.2075 20.7154 23.1758 20.9735C23.1441 21.2316 23.0271 21.4717 22.8433 21.6557L21.6557 22.8433C21.4717 23.0271 21.2316 23.1441 20.9735 23.1758C20.7154 23.2075 20.4542 23.1521 20.2312 23.0183L18.0927 21.735C17.6104 21.9917 17.1049 22.2017 16.576 22.365L15.9705 24.7835C15.9073 25.0358 15.7616 25.2597 15.5566 25.4197C15.3515 25.5798 15.0989 25.6667 14.8388 25.6667H13.1612C12.9011 25.6667 12.6485 25.5798 12.4434 25.4197C12.2384 25.2597 12.0927 25.0358 12.0295 24.7835L11.424 22.365C10.8998 22.203 10.392 21.9921 9.90733 21.735L7.76883 23.0183C7.54585 23.1521 7.28457 23.2075 7.02649 23.1758C6.76841 23.1441 6.52832 23.0271 6.34433 22.8433L5.15667 21.6557C4.97292 21.4717 4.85591 21.2316 4.82421 20.9735C4.7925 20.7154 4.84792 20.4542 4.98167 20.2312L6.265 18.0927C6.00791 17.608 5.79699 17.1002 5.635 16.576L3.2165 15.9705C2.9644 15.9074 2.74061 15.7618 2.58062 15.557C2.42063 15.3522 2.3336 15.0999 2.33333 14.84V13.1623C2.33334 12.9023 2.42025 12.6496 2.58026 12.4446C2.74028 12.2396 2.96421 12.0939 3.2165 12.0307L5.635 11.4252C5.79833 10.8963 6.00833 10.3907 6.265 9.90851L4.98167 7.77001C4.84792 7.54702 4.7925 7.28575 4.82421 7.02767C4.85591 6.76959 4.97292 6.52949 5.15667 6.34551L6.34433 5.15668C6.52832 4.97294 6.76841 4.85592 7.02649 4.82422C7.28457 4.79251 7.54585 4.84793 7.76883 4.98168L9.90733 6.26501C10.3896 6.00834 10.8951 5.79834 11.424 5.63501L12.0295 3.21651C12.0927 2.96442 12.2382 2.74063 12.443 2.58063C12.6478 2.42064 12.9001 2.33361 13.16 2.33334H14.8377C15.0977 2.33335 15.3504 2.42026 15.5554 2.58027C15.7604 2.74029 15.9061 2.96422 15.9693 3.21651L16.5748 5.63501C17.1037 5.79834 17.6093 6.00834 18.0915 6.26501H18.0927ZM14 17.2667C14.8664 17.2667 15.6973 16.9225 16.3099 16.3099C16.9225 15.6973 17.2667 14.8664 17.2667 14C17.2667 13.1336 16.9225 12.3027 16.3099 11.6901C15.6973 11.0775 14.8664 10.7333 14 10.7333C13.1336 10.7333 12.3027 11.0775 11.6901 11.6901C11.0775 12.3027 10.7333 13.1336 10.7333 14C10.7333 14.8664 11.0775 15.6973 11.6901 16.3099C12.3027 16.9225 13.1336 17.2667 14 17.2667ZM14 18.6667C12.7623 18.6667 11.5753 18.175 10.7002 17.2998C9.825 16.4247 9.33333 15.2377 9.33333 14C9.33333 12.7623 9.825 11.5753 10.7002 10.7002C11.5753 9.82501 12.7623 9.33334 14 9.33334C15.2377 9.33334 16.4247 9.82501 17.2998 10.7002C18.175 11.5753 18.6667 12.7623 18.6667 14C18.6667 15.2377 18.175 16.4247 17.2998 17.2998C16.4247 18.175 15.2377 18.6667 14 18.6667Z" fill="black"/>
</svg>
